<?xml version="1.0" encoding="utf-8"?>
<!-- Generator: Adobe Illustrator 27.4.0, SVG Export Plug-In . SVG Version: 6.00 Build 0)  -->
<svg version="1.1" id="Layer_1" xmlns="http://www.w3.org/2000/svg" xmlns:xlink="http://www.w3.org/1999/xlink" x="0px" y="0px"
	 viewBox="0 0 200 200" style="enable-background:new 0 0 200 200;" xml:space="preserve">
<style type="text/css">
	.st0{fill:#FFFFFF;}
</style>
<g>
	<path class="st0" d="M10.1,162.01l-2.86,2.98v5.39h-4.9v-21.31h4.9v9.95l9.44-9.95h5.48l-8.83,9.5l9.35,11.81h-5.75L10.1,162.01z"
		/>
	<path class="st0" d="M35.09,155.57c1.36,1.21,2.04,3.03,2.04,5.46v9.35h-4.44v-2.04c-0.89,1.52-2.56,2.28-4.99,2.28
		c-1.26,0-2.35-0.21-3.27-0.64c-0.92-0.43-1.63-1.01-2.12-1.77c-0.49-0.75-0.73-1.6-0.73-2.56c0-1.52,0.57-2.72,1.72-3.59
		c1.15-0.87,2.92-1.31,5.31-1.31h3.77c0-1.03-0.32-1.83-0.94-2.39c-0.63-0.56-1.57-0.84-2.83-0.84c-0.87,0-1.73,0.14-2.57,0.41
		c-0.84,0.27-1.56,0.64-2.15,1.11l-1.7-3.32c0.89-0.63,1.96-1.12,3.21-1.46c1.25-0.34,2.53-0.52,3.85-0.52
		C31.78,153.76,33.73,154.36,35.09,155.57z M31.04,166.86c0.63-0.38,1.08-0.93,1.34-1.66v-1.67h-3.26c-1.95,0-2.92,0.64-2.92,1.92
		c0,0.61,0.24,1.09,0.72,1.45c0.48,0.36,1.13,0.53,1.96,0.53C29.69,167.42,30.41,167.24,31.04,166.86z"/>
	<path class="st0" d="M53.38,166.72v3.65H38.77v-2.86l8.34-9.86h-8.13V154h14.12v2.86l-8.34,9.86H53.38z"/>
	<path class="st0" d="M71.4,154v16.38h-4.5v-1.95c-0.63,0.71-1.38,1.25-2.25,1.63c-0.87,0.38-1.82,0.56-2.83,0.56
		c-2.15,0-3.86-0.62-5.11-1.86c-1.26-1.24-1.89-3.07-1.89-5.51V154h4.75v8.55c0,2.64,1.11,3.96,3.32,3.96
		c1.14,0,2.05-0.37,2.74-1.11c0.69-0.74,1.03-1.84,1.03-3.3V154H71.4z"/>
	<path class="st0" d="M81.13,154.36c0.96-0.41,2.07-0.61,3.33-0.61v4.38c-0.53-0.04-0.88-0.06-1.07-0.06c-1.36,0-2.43,0.38-3.2,1.14
		c-0.77,0.76-1.16,1.9-1.16,3.42v7.73h-4.75V154h4.54v2.16C79.4,155.37,80.16,154.77,81.13,154.36z"/>
	<path class="st0" d="M86.01,150.96c-0.55-0.51-0.82-1.14-0.82-1.89c0-0.75,0.27-1.38,0.82-1.89c0.55-0.51,1.26-0.76,2.13-0.76
		c0.87,0,1.58,0.24,2.13,0.73c0.55,0.49,0.82,1.1,0.82,1.83c0,0.79-0.27,1.45-0.82,1.96c-0.55,0.52-1.26,0.78-2.13,0.78
		C87.27,151.72,86.56,151.46,86.01,150.96z M85.77,154h4.75v16.38h-4.75V154z"/>
	<path class="st0" d="M120.23,170.38l-0.03-12.78l-6.27,10.53h-2.22l-6.24-10.26v12.51h-4.63v-21.31h4.08l7.97,13.24l7.85-13.24
		h4.05l0.06,21.31H120.23z"/>
	<path class="st0" d="M144,163.53h-12.39c0.22,1.01,0.75,1.82,1.58,2.4c0.83,0.59,1.87,0.88,3.1,0.88c0.85,0,1.61-0.13,2.27-0.38
		c0.66-0.25,1.27-0.65,1.84-1.2l2.53,2.74c-1.54,1.77-3.8,2.65-6.76,2.65c-1.85,0-3.48-0.36-4.9-1.08s-2.52-1.72-3.29-3
		c-0.77-1.28-1.16-2.73-1.16-4.35c0-1.6,0.38-3.05,1.14-4.34c0.76-1.29,1.81-2.29,3.14-3.01c1.33-0.72,2.82-1.08,4.46-1.08
		c1.6,0,3.05,0.35,4.35,1.03c1.3,0.69,2.32,1.68,3.06,2.97c0.74,1.29,1.11,2.79,1.11,4.49C144.09,162.31,144.06,162.74,144,163.53z
		 M132.89,158.26c-0.73,0.61-1.18,1.44-1.34,2.5h8.07c-0.16-1.03-0.61-1.86-1.34-2.48c-0.73-0.62-1.62-0.93-2.68-0.93
		C134.52,157.35,133.62,157.65,132.89,158.26z"/>
	<path class="st0" d="M152.57,154.36c0.96-0.41,2.07-0.61,3.33-0.61v4.38c-0.53-0.04-0.88-0.06-1.06-0.06
		c-1.36,0-2.43,0.38-3.2,1.14c-0.77,0.76-1.16,1.9-1.16,3.42v7.73h-4.75V154h4.54v2.16C150.84,155.37,151.61,154.77,152.57,154.36z"
		/>
	<path class="st0" d="M160.27,169.54c-1.39-0.72-2.48-1.72-3.26-3c-0.78-1.28-1.17-2.73-1.17-4.35c0-1.62,0.39-3.07,1.17-4.35
		c0.78-1.28,1.87-2.28,3.26-3c1.39-0.72,2.96-1.08,4.7-1.08c1.72,0,3.23,0.36,4.52,1.08c1.29,0.72,2.23,1.75,2.82,3.09l-3.68,1.98
		c-0.85-1.5-2.08-2.25-3.68-2.25c-1.24,0-2.26,0.41-3.07,1.22c-0.81,0.81-1.22,1.92-1.22,3.32c0,1.4,0.41,2.51,1.22,3.32
		c0.81,0.81,1.84,1.22,3.07,1.22c1.62,0,2.85-0.75,3.68-2.25l3.68,2.01c-0.59,1.3-1.53,2.31-2.82,3.04c-1.29,0.73-2.8,1.1-4.52,1.1
		C163.23,170.62,161.66,170.26,160.27,169.54z"/>
	<path class="st0" d="M188.28,155.58c1.25,1.22,1.87,3.02,1.87,5.42v9.38h-4.75v-8.64c0-1.3-0.28-2.27-0.85-2.91
		c-0.57-0.64-1.39-0.96-2.47-0.96c-1.2,0-2.15,0.37-2.86,1.11c-0.71,0.74-1.07,1.84-1.07,3.3v8.1h-4.75v-22.59h4.75v7.91
		c0.63-0.63,1.39-1.11,2.28-1.45c0.89-0.33,1.87-0.5,2.92-0.5C185.39,153.76,187.03,154.36,188.28,155.58z"/>
	<path class="st0" d="M192.61,169.77c-0.57-0.57-0.85-1.28-0.85-2.13c0-0.87,0.28-1.58,0.85-2.12c0.57-0.54,1.27-0.81,2.1-0.81
		c0.83,0,1.53,0.27,2.1,0.81c0.57,0.54,0.85,1.24,0.85,2.12c0,0.85-0.28,1.56-0.85,2.13c-0.57,0.57-1.27,0.85-2.1,0.85
		C193.88,170.62,193.18,170.34,192.61,169.77z"/>
</g>
<g>
	<path class="st0" d="M53.72,181.53c-0.49-0.27-0.88-0.65-1.16-1.14c-0.28-0.48-0.43-1.03-0.43-1.63s0.14-1.15,0.43-1.63
		c0.28-0.48,0.67-0.86,1.16-1.14c0.49-0.27,1.05-0.41,1.66-0.41c0.45,0,0.87,0.07,1.25,0.22c0.38,0.15,0.71,0.36,0.98,0.65
		l-0.29,0.3c-0.5-0.5-1.14-0.74-1.92-0.74c-0.53,0-1,0.12-1.43,0.36c-0.43,0.24-0.77,0.57-1.01,0.99c-0.24,0.42-0.37,0.89-0.37,1.41
		s0.12,0.99,0.37,1.41c0.24,0.42,0.58,0.75,1.01,0.99c0.43,0.24,0.91,0.36,1.43,0.36c0.78,0,1.42-0.25,1.92-0.75l0.29,0.3
		c-0.27,0.29-0.59,0.5-0.98,0.65s-0.8,0.22-1.25,0.22C54.76,181.94,54.21,181.8,53.72,181.53z"/>
	<path class="st0" d="M59.91,181.52c-0.5-0.28-0.88-0.66-1.17-1.14c-0.28-0.48-0.43-1.02-0.43-1.62c0-0.6,0.14-1.14,0.43-1.62
		s0.67-0.86,1.17-1.14c0.5-0.28,1.05-0.42,1.66-0.42c0.61,0,1.17,0.14,1.66,0.41c0.5,0.27,0.88,0.65,1.17,1.14
		c0.28,0.48,0.43,1.03,0.43,1.63s-0.14,1.15-0.43,1.63c-0.28,0.48-0.67,0.86-1.17,1.14c-0.5,0.27-1.05,0.41-1.66,0.41
		C60.96,181.94,60.4,181.8,59.91,181.52z M62.99,181.16c0.42-0.24,0.76-0.57,1-0.99c0.24-0.42,0.37-0.89,0.37-1.41
		s-0.12-0.99-0.37-1.41c-0.24-0.42-0.58-0.75-1-0.99c-0.42-0.24-0.9-0.36-1.42-0.36c-0.53,0-1,0.12-1.43,0.36
		c-0.43,0.24-0.76,0.57-1.01,0.99c-0.24,0.42-0.37,0.89-0.37,1.41s0.12,0.99,0.37,1.41c0.24,0.42,0.58,0.75,1.01,0.99
		c0.43,0.24,0.9,0.36,1.43,0.36C62.1,181.52,62.57,181.4,62.99,181.16z"/>
	<path class="st0" d="M67.32,181.52c-0.5-0.28-0.88-0.66-1.17-1.14c-0.28-0.48-0.43-1.02-0.43-1.62c0-0.6,0.14-1.14,0.43-1.62
		s0.67-0.86,1.17-1.14c0.5-0.28,1.05-0.42,1.67-0.42c0.61,0,1.17,0.14,1.66,0.41c0.5,0.27,0.88,0.65,1.17,1.14
		c0.28,0.48,0.43,1.03,0.43,1.63s-0.14,1.15-0.43,1.63c-0.28,0.48-0.67,0.86-1.17,1.14c-0.5,0.27-1.05,0.41-1.66,0.41
		C68.37,181.94,67.81,181.8,67.32,181.52z M70.41,181.16c0.42-0.24,0.76-0.57,1-0.99c0.24-0.42,0.37-0.89,0.37-1.41
		s-0.12-0.99-0.37-1.41c-0.24-0.42-0.58-0.75-1-0.99c-0.42-0.24-0.9-0.36-1.42-0.36c-0.53,0-1,0.12-1.43,0.36
		c-0.43,0.24-0.76,0.57-1.01,0.99s-0.37,0.89-0.37,1.41s0.12,0.99,0.37,1.41c0.24,0.42,0.58,0.75,1.01,0.99
		c0.43,0.24,0.9,0.36,1.43,0.36C69.51,181.52,69.98,181.4,70.41,181.16z"/>
	<path class="st0" d="M73.74,175.63h0.46v5.85h3.61v0.41h-4.06V175.63z"/>
	<path class="st0" d="M78.38,181.89h4.48v0.32h-4.48V181.89z"/>
	<path class="st0" d="M89.23,175.63v6.27h-0.38l-4.27-5.44v5.44h-0.46v-6.27h0.38l4.26,5.44v-5.44H89.23z"/>
	<path class="st0" d="M95.65,181.48v0.41h-4.32v-6.27h4.19v0.41h-3.73v2.47h3.34v0.4h-3.34v2.57H95.65z"/>
	<path class="st0" d="M101.1,180.13h-3.63l-0.8,1.76h-0.49l2.88-6.27h0.46l2.88,6.27h-0.49L101.1,180.13z M100.93,179.75l-1.65-3.62
		l-1.64,3.62H100.93z"/>
	<path class="st0" d="M104.33,176.04h-2.26v-0.41h4.97v0.41h-2.26v5.85h-0.46V176.04z"/>
	<path class="st0" d="M106.99,181.89h4.48v0.32h-4.48V181.89z"/>
	<path class="st0" d="M112.98,181.25c-0.44-0.46-0.66-1.13-0.66-2.01v-3.61h0.46v3.59c0,0.77,0.18,1.35,0.53,1.73
		c0.35,0.38,0.86,0.57,1.53,0.57c0.66,0,1.17-0.19,1.52-0.57c0.35-0.38,0.53-0.96,0.53-1.73v-3.59h0.46v3.61
		c0,0.88-0.22,1.55-0.66,2.01c-0.44,0.46-1.06,0.69-1.85,0.69S113.42,181.71,112.98,181.25z"/>
	<path class="st0" d="M124.48,175.63v6.27h-0.38l-4.27-5.44v5.44h-0.46v-6.27h0.39l4.26,5.44v-5.44H124.48z"/>
	<path class="st0" d="M126.58,175.63h0.46v6.27h-0.46V175.63z"/>
	<path class="st0" d="M135.32,182.38c-0.18,0.23-0.4,0.41-0.65,0.53c-0.25,0.12-0.53,0.18-0.82,0.18c-0.35,0-0.68-0.09-1.01-0.27
		c-0.33-0.18-0.68-0.47-1.07-0.88c-0.61,0-1.17-0.14-1.66-0.42c-0.49-0.28-0.88-0.66-1.16-1.14c-0.28-0.48-0.42-1.02-0.42-1.62
		c0-0.6,0.14-1.14,0.43-1.62s0.67-0.86,1.17-1.14c0.5-0.28,1.05-0.42,1.67-0.42c0.61,0,1.17,0.14,1.66,0.41
		c0.5,0.27,0.88,0.65,1.17,1.14c0.28,0.48,0.43,1.03,0.43,1.63c0,0.54-0.11,1.03-0.34,1.47c-0.23,0.44-0.55,0.81-0.95,1.1
		c-0.41,0.29-0.87,0.48-1.39,0.56c0.51,0.54,1.01,0.81,1.49,0.81c0.48,0,0.89-0.2,1.23-0.6L135.32,182.38z M129.35,180.16
		c0.24,0.42,0.58,0.75,1.01,0.99c0.43,0.24,0.9,0.36,1.43,0.36c0.52,0,1-0.12,1.42-0.36c0.42-0.24,0.76-0.57,1-0.99
		c0.24-0.42,0.37-0.89,0.37-1.4s-0.12-0.98-0.37-1.4c-0.24-0.42-0.58-0.75-1-0.99c-0.42-0.24-0.9-0.36-1.42-0.36
		c-0.53,0-1,0.12-1.43,0.36s-0.76,0.57-1.01,0.99c-0.24,0.42-0.37,0.89-0.37,1.4S129.11,179.74,129.35,180.16z"/>
	<path class="st0" d="M137.14,181.25c-0.44-0.46-0.66-1.13-0.66-2.01v-3.61h0.46v3.59c0,0.77,0.18,1.35,0.53,1.73
		c0.35,0.38,0.86,0.57,1.53,0.57c0.66,0,1.17-0.19,1.52-0.57c0.35-0.38,0.53-0.96,0.53-1.73v-3.59h0.46v3.61
		c0,0.88-0.22,1.55-0.66,2.01c-0.44,0.46-1.06,0.69-1.85,0.69C138.2,181.94,137.58,181.71,137.14,181.25z"/>
	<path class="st0" d="M147.87,181.48v0.41h-4.32v-6.27h4.19v0.41H144v2.47h3.34v0.4H144v2.57H147.87z"/>
</g>
<g>
	<path class="st0" d="M186.17,113.74c-0.14-0.54-0.29-0.99-0.47-1.36c0.09-0.45-0.02-0.99-0.34-1.63c-0.32-0.63-0.48-1.17-0.48-1.63
		c-1-3.53-1.81-6.85-2.44-9.96c-0.63-3.12-1.13-6.17-1.49-9.15c-0.36-2.98-0.66-5.97-0.88-8.95c-0.23-2.98-0.39-6.19-0.47-9.63
		l-0.95-26.71c-0.27-0.27-0.52-0.56-0.75-0.88c-0.23-0.32-0.52-0.56-0.88-0.75c-4.16,0.45-7.86,0.68-11.12,0.68
		s-6.78,0.18-10.57,0.54c-1.81,2.44-3.64,5.02-5.49,7.73c-1.85,2.71-3.66,5.49-5.42,8.34c-1.76,2.85-3.46,5.69-5.08,8.54
		c-1.63,2.85-3.07,5.63-4.34,8.34c-1.9-9.04-3.16-18.32-3.8-27.86c-0.63-9.53-0.54-19.05,0.27-28.54c-0.18-0.72-0.39-1.33-0.61-1.83
		c-0.23-0.5-0.39-1.06-0.47-1.69c-1.81-0.36-3.5-0.5-5.08-0.41c-1.58,0.09-3.23,0.36-4.95,0.81c-0.72-0.18-1.31-0.18-1.76,0
		c-0.45,0.18-0.95,0.05-1.49-0.41c-1.27,0.63-2.62,0.97-4.07,1.02c-1.45,0.05-2.8,0.43-4.07,1.15c-0.72,2.35-1.2,4.77-1.42,7.25
		c-0.23,2.49-0.32,5.04-0.27,7.66c0.04,2.62,0.16,5.29,0.34,8c0.18,2.71,0.32,5.42,0.41,8.13c0,0,0.81,17.64,2.85,23.59
		c0.25,0.72,0.43,1.72,0.57,2.92c1.19,6,2.66,11.82,4.45,17.42c2.08,6.51,4.83,12.29,8.27,17.35c0.63,0.54,1.33,0.97,2.1,1.29
		c0.77,0.32,1.56,0.11,2.37-0.61c0.18,0.09,0.36,0.18,0.54,0.27c0.18,0.09,0.41,0.18,0.68,0.27c2.8-0.9,5.65-1.38,8.54-1.42
		c2.89-0.04,5.87-0.52,8.95-1.42c1.27-5.33,2.53-10.55,3.8-15.66c1.27-5.11,3.12-10.37,5.56-15.79c0.18,6.6,0.7,12.7,1.56,18.3
		c0.86,5.61,2.37,11.16,4.54,16.68c0.36,0,0.59,0.14,0.68,0.41c0.09,0.27,0.27,0.45,0.54,0.54c0.63,0.18,1.22,0.23,1.76,0.14
		c0.54-0.09,1.04,0.09,1.49,0.54c0.45-0.45,1.06-0.59,1.83-0.41c0.77,0.18,1.42,0.36,1.97,0.54c0.9-0.27,2.06-0.43,3.46-0.47
		c1.4-0.04,2.51,0.16,3.32,0.61c0.45-0.45,0.95-0.59,1.49-0.41c0.54,0.18,1.04,0.36,1.49,0.54c0.9-0.54,1.76-0.65,2.58-0.34
		c0.81,0.32,1.72,0.25,2.71-0.2C186.29,114.78,186.31,114.28,186.17,113.74z"/>
	<path class="st0" d="M103.76,50.7c-1,0.18-2.01,0.39-3.05,0.61c-1.04,0.23-2.08,0.43-3.12,0.61c-1.04,0.18-2.1,0.23-3.19,0.14
		c-0.45,0.45-0.81,1.04-1.08,1.76c-0.27,0.72-0.72,1.27-1.36,1.63c0.36,0.63,0.25,1.18-0.34,1.63c-0.59,0.45-0.88,1.04-0.88,1.76
		c0.18,0.54,0.22,1.08,0.14,1.63c-0.09,0.54-0.23,1.11-0.41,1.69c-0.18,0.59-0.34,1.2-0.47,1.83c-0.14,0.63-0.16,1.31-0.07,2.03
		c-0.27,0.36-0.5,0.7-0.68,1.02c-0.18,0.32-0.36,0.7-0.54,1.15c-0.09,2.17-0.41,4.79-0.95,7.86c-0.54,3.07-1.08,6.24-1.63,9.49
		c-0.54,3.25-1.02,6.44-1.42,9.56c-0.41,3.12-0.56,5.81-0.47,8.07c0.18,0.09,0.34,0.02,0.47-0.2c0.14-0.22,0.23-0.47,0.27-0.75
		c0.05-0.27,0.11-0.52,0.2-0.75c0.09-0.22,0.23-0.29,0.41-0.2c0.36-0.81,0.61-1.51,0.75-2.1c0.14-0.59,0.29-1.15,0.47-1.69
		c0.18,1.81,0.11,3.55-0.2,5.22c-0.32,1.67-0.29,3.28,0.07,4.81c-0.18,0.18-0.27,0.39-0.27,0.61c0,0.23-0.09,0.43-0.27,0.61
		c0.36,0.63,0.52,1.2,0.47,1.69c-0.04,0.5-0.02,1.02,0.07,1.56c0.18,1.27,0.47,2.24,0.88,2.92c0.41,0.68,0.83,1.38,1.29,2.1
		c0.72-0.18,1.31,0.02,1.76,0.61c0.45,0.59,0.9,1.06,1.36,1.42c1.08-0.45,2.17-0.36,3.25,0.27c1.08,0.63,1.99,1.17,2.71,1.63
		c0.45-0.36,1.11-0.41,1.97-0.14c0.86,0.27,1.6,0.5,2.24,0.68c0.72-0.36,1.4-0.5,2.03-0.41c0.63,0.09,1.36,0.22,2.17,0.41
		c0.81-0.54,1.36-1.31,1.63-2.31c-0.36-0.81-1.04-1.45-2.03-1.9c-0.72-1.27-1.15-2.64-1.29-4.13c-0.14-1.49-0.16-3-0.07-4.54
		c0.09-1.99,0.32-4.61,0.68-7.86c0.36-3.25,0.77-6.58,1.22-9.96c0.45-3.39,0.95-6.6,1.49-9.63c0.54-3.03,1.08-5.36,1.63-6.98
		c-2.04-5.95-2.85-23.59-2.85-23.59C105.75,50.47,104.75,50.52,103.76,50.7z M88.51,88.86c-0.32,0.95-0.61,1.83-0.88,2.64
		c-0.27-0.27-0.36-0.52-0.27-0.75c0.09-0.22,0.04-0.52-0.14-0.88h0.68c0.09-0.36,0.07-0.61-0.07-0.75c-0.14-0.14-0.2-0.34-0.2-0.61
		c0.54-0.18,0.75-0.56,0.61-1.15c-0.14-0.59,0.02-1.06,0.47-1.42C88.89,86.94,88.82,87.91,88.51,88.86z"/>
	<path class="st0" d="M114.61,127.91c-0.72,0.22-1.49,0.43-2.3,0.61c-2.35,0.45-4.95,0.99-7.8,1.63c-2.85,0.63-5.45,0.77-7.8,0.41
		c-1.54,0.27-3.01,0.07-4.41-0.61c-1.4-0.68-2.73-1.29-4-1.83c-0.18-0.81-0.75-1.38-1.69-1.69c-0.95-0.32-1.51-0.7-1.69-1.15h0.27
		c-0.18-0.27-0.47-0.41-0.88-0.41s-0.66-0.23-0.75-0.68c0.36,0,0.54-0.09,0.54-0.27c-0.63-0.27-1.08-0.72-1.36-1.36
		c-0.27-0.63-0.72-1.08-1.36-1.36c0,0.36-0.05,0.54-0.14,0.54c-0.81-0.81-1.58-1.69-2.3-2.64c-0.72-0.95-1.36-2.01-1.9-3.19
		c0.36,0,0.54,0.16,0.54,0.47c0,0.32,0.18,0.43,0.54,0.34c0-0.63-0.36-1.22-1.08-1.76c-0.18,0.09-0.23,0.23-0.14,0.41
		c0.09,0.18,0.04,0.27-0.14,0.27c0-0.63-0.16-1.08-0.47-1.36c-0.32-0.27-0.57-0.63-0.75-1.08c0.09-0.18,0.2-0.27,0.34-0.27
		s0.16-0.14,0.07-0.41c-0.72-1.26-1.42-2.51-2.1-3.73c-0.68-1.22-1.29-2.46-1.83-3.73c0.09-0.18-0.07-0.45-0.47-0.81
		c-0.41-0.36-0.57-0.63-0.47-0.81c-0.36-1.08-1-2.35-1.9-3.8c-0.9-1.44-1.83-2.96-2.78-4.54c-0.95-1.58-1.81-3.16-2.58-4.74
		c-0.77-1.58-1.24-3.05-1.42-4.41c-0.18-0.36-0.54-1.11-1.08-2.24c-0.54-1.13-1.13-2.35-1.76-3.66c-0.63-1.31-1.24-2.55-1.83-3.73
		c-0.59-1.17-0.97-1.9-1.15-2.17c-6.84-6.24-11.52-8.41-11.52-8.41c-1.45,0.45-3.01,0.84-4.68,1.15c-1.67,0.32-3.1,0.52-4.27,0.61
		c0.45-5.69,0.93-11.52,1.42-17.49c0.5-5.97,1.42-11.7,2.78-17.22c0.45-1.63,0.88-3.12,1.29-4.47c0.41-1.36-0.16-2.39-1.69-3.12
		c-1.81-0.09-3.68-0.07-5.63,0.07c-1.94,0.14-3.82,0.36-5.63,0.68c-1.81,0.32-3.48,0.75-5.02,1.29c-1.54,0.54-2.76,1.22-3.66,2.03
		c-0.18,0.18-0.34,0.39-0.47,0.61c-0.14,0.23-0.34,0.39-0.61,0.47c-1.9,9.76-3.14,19.5-3.73,29.22c-0.59,9.72-1.06,20.09-1.42,31.11
		c0,1.63,0.02,3.37,0.07,5.22c0.04,1.85,0.14,3.75,0.27,5.69c0.14,1.94,0.34,3.86,0.61,5.76c0.27,1.9,0.54,3.62,0.81,5.15
		c0.45,0.54,0.79,1.18,1.02,1.9c0.22,0.72,0.7,1.18,1.42,1.36c0.18,0.09,0.47,0.04,0.88-0.14c0.41-0.18,0.83-0.22,1.29-0.14
		c0.81-0.27,1.54-0.63,2.17-1.08c0.63-0.45,1.36-0.81,2.17-1.08c0.72-0.72,1.42-1.44,2.1-2.17c0.68-0.72,1.56-1.22,2.64-1.49
		c0.09-0.18,0.22-0.34,0.41-0.47c0.18-0.14,0.36-0.29,0.54-0.47c0.18-0.18,0.25-0.38,0.2-0.61c-0.05-0.22,0.02-0.38,0.2-0.47
		c0.27-0.18,0.54-0.32,0.81-0.41c0.27-0.09,0.5-0.32,0.68-0.68c0.09-0.63,0.27-1.15,0.54-1.56c0.27-0.41,0.59-0.77,0.95-1.08
		c0.36-0.32,0.72-0.65,1.08-1.02c0.36-0.36,0.68-0.77,0.95-1.22c-0.18-0.63-0.18-1.29,0-1.97c0.18-0.68,0.41-1.24,0.68-1.69
		c-0.18-1.08-0.34-2.33-0.47-3.73c-0.14-1.4-0.23-2.78-0.27-4.14c-0.05-1.36-0.07-2.66-0.07-3.93c0-1.26,0.04-2.35,0.14-3.25
		c0.9,1.08,1.54,1.99,1.9,2.71c0.36,0.72,0.9,1.81,1.63,3.25c1.54,3.35,3.57,7.39,6.1,12.13c2.53,4.75,5.31,9.49,8.34,14.24
		c3.03,4.75,6.17,9.1,9.42,13.08c3.25,3.98,6.42,6.91,9.49,8.81c3.25,1.99,6.48,3.07,9.69,3.25c3.21,0.18,6.76,0.04,10.64-0.41
		c3.8-0.45,7.32-1.22,10.57-2.3c3.25-1.08,6.78-2.71,10.57-4.88c0.45-0.72,0.97-1.31,1.56-1.76c0.59-0.45,0.88-1.22,0.88-2.3
		C115.91,127.98,115.33,127.68,114.61,127.91z"/>
	<path class="st0" d="M75.29,110.69c0.36,0.86,0.9,1.51,1.63,1.97c-0.36-0.9-0.75-1.76-1.15-2.58c-0.41-0.81-0.97-1.54-1.69-2.17
		C74.52,108.91,74.93,109.83,75.29,110.69z"/>
	<path class="st0" d="M79.97,119.91c0.14,0.5,0.47,0.79,1.02,0.88c0.09-0.36-0.07-0.75-0.47-1.15c-0.41-0.41-0.75-0.79-1.02-1.15
		C79.67,118.94,79.83,119.41,79.97,119.91z"/>
	<path class="st0" d="M62.07,70.71c2.03-0.54,3.77-1.36,5.22-2.44c-0.27-3.16-0.34-6.21-0.2-9.15c0.14-2.94,0.7-6.26,1.69-9.96
		c0.99-3.88,2.33-7.77,4-11.66c1.67-3.88,3.55-7.41,5.63-10.57c0.9-1.26,1.81-2.3,2.71-3.12c0.9-0.81,1.44-1.76,1.63-2.85
		c-0.18-0.63-0.54-0.93-1.08-0.88c-0.54,0.05-1.04,0.11-1.49,0.2c-1.27-0.45-2.31-0.54-3.12-0.27c-0.81,0.27-1.76,0.27-2.85,0
		c-1.45,0.45-2.89,0.68-4.34,0.68c-1.45,0-2.83,0.09-4.14,0.27c-1.31,0.18-2.44,0.54-3.39,1.08c-0.95,0.54-1.61,1.49-1.97,2.85
		c-0.18,0-0.29,0.05-0.34,0.14c-0.05,0.09-0.16,0.14-0.34,0.14c-1.27,2.08-2.49,4.13-3.66,6.17c-1.18,2.03-2.4,4.54-3.66,7.52
		c-3.52,8.05-5.97,16.59-7.32,25.62c0,0,4.68,2.16,11.52,8.41C58.21,71.98,60.04,71.25,62.07,70.71z"/>
</g>
</svg>
